<svg width="320" height="80" viewBox="0 0 320 80" fill="none" xmlns="http://www.w3.org/2000/svg">
<path fill-rule="evenodd" clip-rule="evenodd" d="M188.078 50.5521V48.7527H174.846C174.049 53.9247 171.958 58.0027 168.471 60.8871C164.885 63.871 160.701 65.2634 155.82 65.2634C149.445 65.2634 144.465 63.0753 140.879 58.5995C137.293 54.2231 135.5 47.957 135.5 40C135.5 32.1425 137.293 25.9758 140.879 21.5C144.465 17.0242 149.445 14.7366 155.82 14.7366C160.502 14.7366 164.487 16.0296 167.674 18.4167C170.862 20.8038 173.153 24.3844 174.348 28.9597H187.995C186.501 20.6048 182.815 14.1398 177.038 9.66398C171.161 5.28763 164.088 3 155.82 3C145.461 3 137.093 6.38172 130.917 12.9462C124.542 19.7097 121.454 28.6613 121.454 40C121.454 51.3387 124.642 60.2903 131.017 66.9543C137.293 73.7177 145.56 77 155.82 77C164.287 77 171.559 74.6129 177.735 69.6398C183.495 65.0942 186.916 58.7316 188.078 50.5521ZM117.108 63.3734V75.1266H66.796V4.59113H117.108V16.6261H80.2436V33.3357H115.407V33.3552H117.037V44.837H115.407V44.8734H80.2436V63.3734H117.108ZM188.219 75.4083H196.666L202.144 59.7928H233.223L238.802 75.4083H249.171V65.4268L225.553 4.59114H209.815L188.219 61.2448V75.4083ZM206.229 48.3546L208.918 40.696C211.906 32.739 214.795 24.6825 217.584 16.4272C221.071 26.7712 223.959 34.8277 226.35 40.696L229.139 48.3546H206.229ZM254.666 34.5527V75.1266H284.445V63.3935H268.114V34.5527H254.666ZM290.222 75.1266V34.5527H303.67V63.3935H320V75.1266H290.222ZM284.586 25.1207L263.555 4.12227H254.25V13.161L275.674 34.5527H284.586V25.1207ZM9.58722 44.6961L30.6173 65.6946V75.1266H21.7061L0.282187 53.7349V44.6961H9.58722ZM315.062 25.1208L294.032 4.12237H284.727V13.1611L306.151 34.5528H315.062V25.1208ZM40.0634 44.6961L61.0935 65.6946V75.1266H52.1823L30.7584 53.7349V44.6961H40.0634ZM0 4.12227H48.0074C56.0149 6.14653 61.94 13.3895 61.94 22.0142C61.94 30.4496 56.2723 37.5631 48.5319 39.7653H0V34.4118L6.06702 28.3539H43.4568C46.9634 28.3539 49.806 25.5155 49.806 22.0142C49.806 18.5129 46.9634 15.6746 43.4568 15.6746H6.06702L0 9.61665V4.12227Z" fill="#1B1B1B"/>
</svg>
